# xmcd
#
# Track frame offsets: 
#        150
#        17722
#        30347
#        54805
#        81620
#        106378
#        127427
#        135816
#        157378
#        178695
#
# Disc length: 2579 seconds
#
# Revision: 0
# Processed by: cddbd v1.5.2PL0 Copyright (c) Steve Scherf et al.
# Submitted via: ExactAudioCopy v1.3
#
DISCID=830a110a
DTITLE=Tommy Grills - The Hard Side Of The Blues
DYEAR=2019
DGENRE=Guitar Blues
TTITLE0=Driving Me Away
TTITLE1=Hardside Of The Blues
TTITLE2=Help Me
TTITLE3=On The Blues Side Of Town
TTITLE4=Thats Alright
TTITLE5=Little Red Rooster
TTITLE6=Running From The Law
TTITLE7=Peanut Butter Woman
TTITLE8=Bad Bad Love
TTITLE9=Mean Old World
EXTD=
EXTT0=
EXTT1=
EXTT2=
EXTT3=
EXTT4=
EXTT5=
EXTT6=
EXTT7=
EXTT8=
EXTT9=
PLAYORDER=
